<svg version="1.1" id="Layer_1" xmlns="http://www.w3.org/2000/svg" xmlns:xlink="http://www.w3.org/1999/xlink" x="0px" y="0px"
	 width="100%" viewBox="0 0 499 499" enable-background="new 0 0 499 499" xml:space="preserve">
<path fill="#000000" opacity="1.000000" stroke="none" 
	d="
M277.000000,500.000000 
	C184.666687,500.000000 92.833374,500.000000 1.000049,500.000000 
	C1.000033,333.666718 1.000033,167.333450 1.000016,1.000139 
	C167.333237,1.000092 333.666473,1.000092 499.999756,1.000046 
	C499.999847,167.333191 499.999847,333.666382 499.999939,499.999786 
	C425.833344,500.000000 351.666656,500.000000 277.000000,500.000000 
M239.281662,300.180176 
	C238.463364,301.399170 237.645065,302.618164 236.387878,304.043304 
	C236.115158,304.239105 235.926010,304.496338 235.226746,305.137146 
	C229.135284,312.749329 223.043823,320.361542 216.532272,328.166138 
	C216.249283,328.373322 216.147079,328.647858 215.845840,329.683990 
	C215.330658,330.284515 214.815460,330.885010 213.941071,331.749115 
	C214.342224,332.749481 214.743378,333.749847 216.051422,334.909882 
	C239.348511,334.954315 262.645599,335.014984 285.942657,335.002716 
	C287.336151,335.001984 288.729340,334.417908 290.935425,334.021149 
	C292.294434,333.954651 293.653473,333.888123 295.820679,333.903534 
	C297.726593,333.592407 299.675812,333.440857 301.529877,332.938385 
	C306.037659,331.716644 310.501282,330.331940 315.534149,329.061920 
	C316.081726,328.995880 316.629333,328.929810 317.858826,328.866882 
	C320.266144,327.580048 322.673492,326.293243 325.811035,324.963531 
	C329.546906,322.342163 333.282745,319.720795 337.492950,316.927948 
	C337.661407,316.651550 337.829834,316.375153 338.603729,315.778442 
	C346.970703,307.493011 352.381348,297.443115 354.833221,286.075012 
	C357.662292,272.958191 358.298218,259.573608 354.861450,246.473297 
	C352.813934,238.668503 350.432953,230.722412 343.783539,224.305008 
	C342.512054,222.450195 341.240570,220.595398 340.091583,218.919296 
	C342.247650,216.335190 344.434875,214.153625 346.109833,211.631821 
	C354.352753,199.221191 357.625580,185.216217 357.823273,170.608597 
	C357.979004,159.101883 356.208557,147.624664 350.869568,137.263412 
	C347.267487,130.272980 343.010986,123.438995 335.622406,119.277946 
	C335.622406,119.277946 335.446320,119.263092 335.068817,118.703682 
	C328.254028,112.304771 320.371796,108.162384 310.325928,107.131561 
	C309.904419,107.081718 309.482910,107.031868 308.817474,106.416756 
	C305.053589,105.508553 301.316803,103.973236 297.520782,103.809319 
	C285.973969,103.310715 274.404236,103.341637 261.957520,103.009766 
	C250.607788,103.055664 239.258072,103.101570 226.990158,103.020813 
	C202.727859,103.020813 178.465576,103.020813 154.203278,103.020813 
	C154.000473,103.610649 153.797684,104.200485 153.594879,104.790329 
	C160.699677,111.565865 167.804489,118.341408 175.296616,125.691322 
	C176.444580,126.583656 177.707809,127.362175 178.720627,128.387955 
	C183.187637,132.912216 187.582489,137.507721 192.431183,142.830490 
	C220.274261,142.826904 248.117340,142.823318 276.873810,142.948105 
	C292.425079,142.237854 304.064484,147.930817 309.940399,163.846558 
	C310.628967,171.757629 309.757355,179.475327 306.443420,187.254745 
	C303.255646,190.150986 300.067871,193.047211 296.241455,196.275925 
	C292.832672,197.233795 289.423889,198.191666 285.266388,199.046509 
	C284.766113,199.090515 284.265839,199.134537 282.861755,199.106354 
	C273.029541,199.094254 263.197052,199.040176 253.365494,199.114182 
	C251.849075,199.125610 250.337082,199.725204 248.246124,200.216202 
	C247.798691,201.494095 247.351257,202.771988 246.992462,204.527100 
	C246.992462,204.527100 246.854889,204.992554 246.346024,205.237122 
	C246.283661,205.770126 246.221298,206.303146 245.990402,207.429398 
	C245.893906,207.610901 245.797409,207.792419 245.119568,208.428726 
	C243.405533,215.141144 241.638611,221.840683 239.999786,228.571411 
	C239.184509,231.919754 238.604065,235.325256 238.171814,239.603378 
	C254.585983,239.653732 271.000153,239.704071 287.898743,240.204453 
	C289.585968,240.311798 291.760468,239.783676 292.874786,240.638153 
	C297.335114,244.058304 302.282715,247.305801 305.543152,251.728165 
	C311.640320,259.998260 310.984955,269.552826 307.826752,279.649384 
	C305.309204,286.449951 300.319092,290.855286 293.236298,294.005188 
	C291.833435,294.386505 290.430573,294.767822 288.291046,295.037231 
	C287.799377,295.090332 287.307709,295.143402 285.921631,295.068115 
	C273.011719,295.048859 260.101776,295.010559 247.192017,295.045746 
	C246.131882,295.048615 245.073074,295.551483 243.355316,295.965271 
	C242.517914,296.924652 241.680511,297.884003 240.382248,299.030182 
	C240.092148,299.228149 239.912506,299.499298 239.281662,300.180176 
M188.008499,353.084839 
	C188.008499,353.084839 188.069946,352.972076 188.768845,352.972107 
	C192.899384,347.668945 197.029922,342.365784 201.104568,337.147003 
	C201.104568,337.147003 201.178192,337.216400 201.842926,337.040710 
	C208.294647,329.651703 214.784576,322.295563 221.181290,314.859253 
	C224.177994,311.375488 226.951981,307.701019 229.908096,304.181152 
	C231.906799,301.801300 234.047165,299.540405 236.124176,297.226318 
	C235.908157,296.802460 235.692139,296.378571 235.476120,295.954712 
	C228.128891,295.954712 220.781647,295.954712 213.156586,295.954712 
	C213.887268,291.459442 214.496307,287.712646 215.289230,283.327087 
	C215.367035,281.948639 215.104874,280.437592 215.581802,279.214813 
	C217.583359,274.082977 220.163696,269.154205 221.868179,263.934265 
	C224.773682,255.036163 227.179901,245.975037 230.146255,236.317612 
	C233.035980,226.873566 235.925690,217.429520 239.179657,207.321854 
	C240.463074,202.944351 241.746506,198.566849 243.651108,193.716919 
	C244.530624,190.262115 245.306702,186.776978 246.309433,183.358307 
	C249.087006,173.888611 251.959045,164.446625 255.150528,154.315140 
	C255.474213,153.113724 255.797897,151.912292 256.157043,150.579269 
	C245.280380,146.600433 234.565872,149.668472 223.090973,149.128662 
	C219.728882,149.084610 216.366791,149.040543 212.643860,148.361221 
	C211.095093,148.575119 209.546341,148.789017 207.499268,149.053650 
	C207.333435,149.034286 207.167603,149.014908 206.871307,148.544525 
	C206.579346,148.694489 206.287384,148.844437 205.477081,149.102386 
	C205.306900,149.149109 205.136703,149.195831 204.070801,149.077499 
	C202.581375,149.060776 201.091980,149.038940 199.602524,149.028214 
	C192.764343,148.978989 191.779694,149.820541 190.078644,156.198654 
	C188.444061,162.327560 186.563522,168.390488 184.832382,174.494110 
	C181.856384,184.986679 178.912506,195.488358 175.326706,206.342896 
	C172.346634,215.654327 169.235504,224.926361 166.422424,234.287979 
	C163.460510,244.144836 160.783447,254.087280 157.391083,264.450653 
	C154.741196,273.022919 151.981369,281.563293 149.484375,290.179871 
	C148.079834,295.026642 147.109161,299.999176 145.345169,305.335571 
	C142.296768,314.973572 139.248367,324.611542 135.925934,335.115936 
	C144.925812,335.115936 152.396652,335.115936 159.852753,335.874847 
	C156.477585,347.784302 153.130173,359.701691 149.717880,371.600494 
	C147.287872,380.074036 144.770554,388.522522 142.080246,397.441345 
	C142.004776,397.592041 141.929306,397.742767 141.392395,398.100311 
	C141.297211,398.405640 141.202026,398.710999 141.049286,399.652222 
	C141.024216,400.077118 140.999161,400.502045 140.381256,401.392181 
	C139.688782,404.673218 138.996307,407.954285 138.303833,411.235321 
	C139.055008,411.827789 139.806183,412.420288 140.557373,413.012756 
	C142.641876,410.113770 144.561523,407.077545 146.840225,404.340210 
	C155.414703,394.040070 164.217850,383.928528 172.695969,373.550751 
	C175.861740,369.675629 178.371338,365.264374 181.095352,361.104095 
	C181.095352,361.104095 181.102295,361.188843 181.790176,361.077332 
	C183.820251,358.410156 185.850311,355.742981 188.008499,353.084839 
z"/>
<path fill="#C61923" opacity="1.000000" stroke="none" 
	d="
M175.955139,205.986206 
	C178.912506,195.488358 181.856384,184.986679 184.832382,174.494110 
	C186.563522,168.390488 188.444061,162.327560 190.078644,156.198654 
	C191.779694,149.820541 192.764343,148.978989 199.602524,149.028214 
	C201.091980,149.038940 202.581375,149.060776 204.163406,149.308411 
	C203.118988,149.707474 201.981750,150.019745 200.844986,150.018051 
	C196.654297,150.011780 193.567856,151.188309 192.745941,155.963867 
	C192.106812,159.677368 190.953033,163.302277 189.865082,167.291458 
	C185.368805,177.183563 187.816162,181.665283 198.271927,183.377090 
	C200.239166,183.699158 202.590866,183.596146 204.060226,184.661530 
	C207.880203,187.431198 210.301376,185.293518 211.698563,182.418137 
	C215.095215,175.427963 217.936066,168.167725 221.164612,160.739838 
	C221.558746,159.643341 221.789108,158.823257 222.276947,157.872101 
	C223.014648,157.160675 223.494873,156.580338 224.016312,155.645264 
	C224.038147,153.277527 224.018753,151.264481 223.999359,149.251450 
	C234.565872,149.668472 245.280380,146.600433 256.157043,150.579269 
	C255.797897,151.912292 255.474213,153.113724 254.643677,154.744324 
	C252.398773,158.997314 250.090683,162.673462 249.053101,166.678741 
	C247.397095,173.071243 243.293533,176.769119 237.686386,179.378204 
	C234.936615,180.657684 232.447723,181.010849 229.873291,178.671555 
	C229.053391,177.926559 227.165512,178.166901 225.789688,178.269470 
	C223.861496,178.413239 221.784012,178.475906 220.082260,179.254730 
	C217.897522,180.254593 215.035049,181.493790 214.193924,183.394974 
	C211.382935,189.748581 209.343048,196.443344 206.864731,203.341919 
	C204.822342,209.454132 202.923004,215.231873 200.894043,221.257889 
	C200.504410,222.002335 200.244385,222.498505 199.622101,223.082520 
	C197.401154,223.885056 195.551437,225.156311 193.681717,225.186478 
	C190.737289,225.233994 187.170578,225.340744 184.951797,223.829849 
	C180.078156,220.511108 179.234848,220.382919 176.818176,225.967178 
	C175.434097,229.165390 174.370850,232.690720 170.046387,232.606598 
	C170.529449,230.277969 170.970032,228.344147 171.402069,226.408417 
	C172.921356,219.601379 174.437683,212.793655 175.955139,205.986206 
z"/>
<path fill="#EA1B23" opacity="1.000000" stroke="none" 
	d="
M309.061401,106.982018 
	C309.482910,107.031868 309.904419,107.081718 310.825562,107.481232 
	C312.155212,108.369469 312.956909,108.959038 313.819946,109.438232 
	C318.977631,112.302147 324.080933,115.277840 329.354340,117.911942 
	C331.159576,118.813652 333.403076,118.837929 335.446320,119.263092 
	C335.446320,119.263092 335.622406,119.277946 335.676575,119.704681 
	C336.692017,121.452110 337.488983,122.940590 338.639832,124.067719 
	C350.965607,136.139114 355.070801,151.399841 354.847168,167.924866 
	C354.729523,176.615616 352.967224,185.284088 351.596985,193.923126 
	C349.070618,192.051422 346.695984,190.405212 344.766602,188.342590 
	C342.004395,185.389648 339.567474,182.132416 336.878540,178.752747 
	C336.243866,178.014297 335.722382,177.528214 335.197021,176.620117 
	C335.180725,171.127823 335.168243,166.057526 335.235657,160.791992 
	C335.214417,160.064331 335.113251,159.531860 334.870544,158.653076 
	C332.451996,147.556534 325.827850,139.985504 316.838287,133.763458 
	C316.017456,133.038345 315.340057,132.589233 314.333313,132.050598 
	C311.669220,130.958206 309.334473,129.955338 306.886780,128.623352 
	C303.964294,123.573235 298.775665,124.395912 294.550781,122.891785 
	C292.704163,122.234367 291.086884,120.613319 289.681030,119.130661 
	C288.372742,117.750938 287.777557,115.614731 286.349396,114.445580 
	C283.278687,111.931755 280.191589,109.676514 282.455078,105.011116 
	C285.503418,105.234871 288.102692,105.487694 290.706421,105.679176 
	C296.823608,106.129051 302.942932,106.549599 309.061401,106.982018 
z"/>
<path fill="#9F101B" opacity="1.000000" stroke="none" 
	d="
M316.981720,134.039490 
	C325.827850,139.985504 332.451996,147.556534 334.870697,158.985992 
	C335.060181,160.105896 335.107971,160.546555 335.155762,160.987213 
	C335.168243,166.057526 335.180725,171.127823 335.089569,176.603073 
	C334.985962,177.008011 334.770782,176.997803 334.492615,177.165833 
	C332.757721,180.235168 331.507385,183.269760 329.756653,185.981247 
	C328.888947,187.325180 327.100861,188.074860 325.729156,189.093384 
	C325.249725,187.651627 324.724731,186.222977 324.304962,184.764053 
	C323.954742,183.546661 324.088379,182.006836 323.376434,181.112198 
	C321.488220,178.739426 319.258301,176.638626 316.418152,173.642471 
	C314.852875,175.952133 313.150970,178.521912 311.386658,181.048111 
	C309.988983,183.049316 308.514740,184.997055 307.074463,186.968536 
	C309.757355,179.475327 310.628967,171.757629 310.002502,163.157883 
	C310.848541,156.728561 307.676331,152.871628 303.820648,149.333862 
	C301.538757,147.240097 299.271881,145.129959 296.975098,142.673920 
	C295.166565,137.929291 294.161774,137.717667 290.589294,141.175461 
	C289.167969,141.499435 288.060394,141.694565 287.038330,141.564270 
	C286.777008,139.768707 286.540833,138.261276 286.060577,136.836090 
	C285.025879,133.765427 283.865662,130.737061 282.872528,128.009308 
	C286.341797,126.765724 288.671783,125.930519 291.399658,125.100342 
	C292.854218,125.196274 293.910889,125.287155 295.143433,125.634201 
	C297.858978,126.630234 300.398712,127.370110 303.278748,128.172714 
	C304.745972,128.474442 305.872864,128.713440 306.999756,128.952454 
	C309.334473,129.955338 311.669220,130.958206 314.506409,132.308075 
	C315.666473,133.116562 316.324097,133.578018 316.981720,134.039490 
z"/>
<path fill="#860B16" opacity="1.000000" stroke="none" 
	d="
M215.105331,283.965851 
	C214.496307,287.712646 213.887268,291.459442 213.156586,295.954712 
	C220.781647,295.954712 228.128891,295.954712 235.476120,295.954712 
	C235.692139,296.378571 235.908157,296.802460 236.124176,297.226318 
	C234.047165,299.540405 231.906799,301.801300 229.908096,304.181152 
	C226.951981,307.701019 224.177994,311.375488 221.181290,314.859253 
	C214.784576,322.295563 208.294647,329.651703 201.537231,336.755310 
	C202.624680,334.318085 204.064880,332.195007 205.400558,330.008087 
	C207.743301,326.172272 206.437592,324.324310 202.318542,323.222412 
	C195.995926,321.531128 190.781845,322.887878 186.045502,326.630554 
	C187.706757,323.211395 189.232864,320.100739 190.957428,317.104340 
	C193.517670,312.655914 192.819427,311.274139 187.583130,311.063049 
	C185.101532,310.963043 182.601929,311.217377 180.127548,311.053375 
	C176.743164,310.829010 173.375031,310.359100 170.046936,309.623322 
	C172.406219,303.174683 174.718506,297.097137 177.401093,290.932831 
	C179.572510,290.806152 181.390259,290.589630 183.171844,290.757385 
	C190.394791,291.437347 197.603989,292.262085 204.823685,292.978546 
	C208.389618,293.332428 210.822372,292.403687 211.477264,288.192505 
	C211.719772,286.633270 213.840942,285.366180 215.105331,283.965851 
z"/>
<path fill="#A2131E" opacity="1.000000" stroke="none" 
	d="
M308.175598,279.017609 
	C310.984955,269.552826 311.640320,259.998260 305.543152,251.728165 
	C302.282715,247.305801 297.335114,244.058304 292.874786,240.638153 
	C291.760468,239.783676 289.585968,240.311798 287.283020,239.723969 
	C284.519958,239.150558 282.373108,238.991669 280.225189,238.975327 
	C266.122742,238.867996 252.019989,238.791473 237.917358,238.704895 
	C238.604065,235.325256 239.184509,231.919754 239.999786,228.571411 
	C241.638611,221.840683 243.405533,215.141144 245.443359,208.603302 
	C245.857620,216.625656 245.857620,216.625656 252.190186,217.297974 
	C259.868011,219.413101 265.276428,224.509903 269.337341,230.383240 
	C273.463135,236.350449 279.051575,237.827820 285.161621,237.660873 
	C291.090240,237.498901 297.579071,241.645874 303.410828,235.984100 
	C306.213928,235.666687 308.605011,235.349808 310.888611,235.370575 
	C308.094299,242.263168 308.975159,243.966064 316.277710,244.437317 
	C315.538879,248.052353 314.827515,251.533142 314.299530,254.116486 
	C316.428406,254.845261 319.424927,254.960190 320.131775,256.291168 
	C321.940857,259.697479 322.712250,263.651154 323.939148,267.372528 
	C324.343353,268.598572 324.618256,270.621887 325.383820,270.853363 
	C330.952484,272.537140 329.943573,276.967072 329.844391,281.309631 
	C328.837585,283.800781 327.986908,285.982574 327.120148,288.380310 
	C327.104065,288.596222 327.039337,289.024414 326.688599,289.062256 
	C320.297333,290.812744 319.631927,290.199036 319.114716,284.082092 
	C318.987549,282.578186 317.551544,280.399719 316.233490,279.950317 
	C313.732269,279.097595 310.881287,279.270630 308.175598,279.017609 
M316.845062,267.694946 
	C316.326477,267.566223 315.807922,267.437469 315.289337,267.308746 
	C315.289337,269.319244 315.289337,271.329712 315.289337,273.340210 
	C315.752625,273.356689 316.215881,273.373138 316.679169,273.389618 
	C316.763489,271.703217 316.847778,270.016815 316.845062,267.694946 
z"/>
<path fill="#910F1B" opacity="1.000000" stroke="none" 
	d="
M215.197281,283.646484 
	C213.840942,285.366180 211.719772,286.633270 211.477264,288.192505 
	C210.822372,292.403687 208.389618,293.332428 204.823685,292.978546 
	C197.603989,292.262085 190.394791,291.437347 183.171844,290.757385 
	C181.390259,290.589630 179.572510,290.806152 177.499420,290.581970 
	C178.149033,287.210846 179.070602,284.103821 180.131622,280.662384 
	C182.867279,273.231506 185.463470,266.135010 188.390411,258.925476 
	C191.264191,258.630310 193.820236,258.199005 196.346832,258.331055 
	C199.302689,258.485596 202.795471,260.345062 205.051788,259.299438 
	C209.173904,257.389130 211.772705,258.757812 214.651306,261.071808 
	C215.891022,262.068390 217.173996,263.011139 217.853638,263.531494 
	C220.581192,257.294891 223.268372,251.150543 225.981659,244.625458 
	C227.270477,241.823929 228.533173,239.403152 229.795868,236.982391 
	C227.179901,245.975037 224.773682,255.036163 221.868179,263.934265 
	C220.163696,269.154205 217.583359,274.082977 215.581802,279.214813 
	C215.104874,280.437592 215.367035,281.948639 215.197281,283.646484 
M217.506012,266.524780 
	C217.506012,266.524780 217.493317,266.486053 217.506012,266.524780 
z"/>
<path fill="#BC1620" opacity="1.000000" stroke="none" 
	d="
M314.982697,329.012848 
	C310.501282,330.331940 306.037659,331.716644 301.529877,332.938385 
	C299.675812,333.440857 297.726593,333.592407 295.185120,333.577301 
	C292.829956,332.828979 291.113098,332.395111 289.390106,331.987274 
	C285.697601,331.113220 281.330261,331.215637 278.438324,329.198853 
	C270.939178,323.969025 264.088867,317.808746 257.410522,312.012573 
	C260.731384,311.424561 263.742157,311.157440 266.453400,310.112885 
	C267.579895,309.678864 268.618134,307.604340 268.665802,306.239807 
	C268.702240,305.196625 267.146240,304.072296 266.248138,303.027405 
	C264.514069,301.009827 262.744354,299.022827 261.458679,297.014465 
	C269.016663,297.010559 276.109375,297.147949 283.191528,296.934265 
	C285.153076,296.875122 287.083191,295.772827 289.027710,295.149139 
	C290.430573,294.767822 291.833435,294.386505 293.810120,294.245056 
	C295.645813,296.706085 298.014069,298.971924 297.926605,301.138611 
	C297.770813,304.996521 299.230988,304.759033 301.963531,304.300171 
	C304.268951,303.913055 306.663330,304.055756 308.714142,304.148682 
	C302.933472,308.726288 294.000366,306.592468 290.457550,313.467499 
	C292.331299,315.778259 293.320679,318.064087 294.632721,320.146576 
	C295.267426,321.153961 296.416779,322.294037 297.490936,322.484589 
	C301.170837,323.137451 303.109802,324.669281 301.086609,329.012848 
	C306.156555,329.012848 310.569611,329.012848 314.982697,329.012848 
z"/>
<path fill="#AF141F" opacity="1.000000" stroke="none" 
	d="
M188.059662,259.038513 
	C185.463470,266.135010 182.867279,273.231506 179.774323,280.712952 
	C178.257004,281.607208 176.643814,281.867401 176.308640,282.664795 
	C173.337952,289.732147 167.957474,287.726501 162.817261,286.379272 
	C159.412598,285.486877 156.158920,279.587067 156.663452,276.030701 
	C157.230148,272.035950 157.553009,268.006622 157.981934,263.992340 
	C160.783447,254.087280 163.460510,244.144836 166.422424,234.287979 
	C169.235504,224.926361 172.346634,215.654327 175.640930,206.164551 
	C174.437683,212.793655 172.921356,219.601379 171.402069,226.408417 
	C170.970032,228.344147 170.529449,230.277969 169.816620,232.903107 
	C169.237137,236.956650 168.582138,240.334656 168.723602,243.678955 
	C168.883881,247.467896 170.040909,251.366318 162.929825,251.746140 
	C165.253830,253.551117 166.530334,255.298599 167.619598,255.188766 
	C168.858871,255.063812 170.434479,253.489166 170.979004,252.177353 
	C172.471802,248.581085 175.546524,246.778305 178.451706,248.342789 
	C183.417313,251.016876 186.942703,249.602127 190.608063,246.444427 
	C190.948471,246.151154 191.547913,246.158508 192.001389,246.411194 
	C190.670364,250.876923 189.365005,254.957718 188.059662,259.038513 
z"/>
<path fill="#7B0510" opacity="1.000000" stroke="none" 
	d="
M185.999146,326.990173 
	C190.781845,322.887878 195.995926,321.531128 202.318542,323.222412 
	C206.437592,324.324310 207.743301,326.172272 205.400558,330.008087 
	C204.064880,332.195007 202.624680,334.318085 201.204865,336.843170 
	C201.178192,337.216400 201.104568,337.147003 200.819275,337.237427 
	C196.379303,342.542603 192.224625,347.757324 188.069946,352.972076 
	C188.069946,352.972076 188.008499,353.084839 187.624725,353.172943 
	C185.194748,355.903656 183.148514,358.546234 181.102295,361.188843 
	C181.102295,361.188843 181.095352,361.104095 180.796722,361.192169 
	C179.193192,362.265137 177.663757,363.057068 176.622589,364.268646 
	C172.312866,369.283813 168.113770,374.395813 163.943619,379.528778 
	C158.389816,386.364838 152.982101,393.321594 147.332703,400.076843 
	C145.705734,402.022247 143.713501,405.444000 140.974091,400.926941 
	C140.999161,400.502045 141.024216,400.077118 141.233551,399.167999 
	C141.604446,398.443176 141.749786,398.179749 141.853821,397.893524 
	C141.929306,397.742767 142.004776,397.592041 142.515381,397.117340 
	C144.423599,395.614014 146.331329,394.713318 147.296082,393.208191 
	C151.990585,385.884216 156.432755,378.398499 161.111481,370.645508 
	C167.453049,359.529297 173.647385,348.737610 179.923172,337.594910 
	C182.002792,333.825928 184.000961,330.408051 185.999146,326.990173 
z"/>
<path fill="#D01D27" opacity="1.000000" stroke="none" 
	d="
M351.947571,193.962616 
	C352.967224,185.284088 354.729523,176.615616 354.847168,167.924866 
	C355.070801,151.399841 350.965607,136.139114 338.639832,124.067719 
	C337.488983,122.940590 336.692017,121.452110 335.701691,119.789398 
	C343.010986,123.438995 347.267487,130.272980 350.869568,137.263412 
	C356.208557,147.624664 357.979004,159.101883 357.823273,170.608597 
	C357.625580,185.216217 354.352753,199.221191 346.109833,211.631821 
	C344.434875,214.153625 342.247650,216.335190 340.091583,218.919296 
	C341.240570,220.595398 342.512054,222.450195 343.834686,224.711334 
	C343.885834,225.117676 343.682190,225.313843 343.364624,225.175385 
	C338.895996,222.367416 334.923004,221.350845 331.266327,225.941513 
	C330.588623,226.792252 329.359009,227.221695 328.352142,227.788803 
	C322.525543,231.070526 322.543823,231.051926 326.091705,236.995956 
	C326.584991,237.822449 326.744141,238.848389 326.777161,239.623596 
	C324.322479,237.320633 322.148621,235.176041 319.979004,232.692841 
	C319.990051,231.902725 319.996887,231.451218 320.280762,230.812042 
	C322.709961,229.072250 324.876099,227.539062 327.010376,225.962753 
	C329.246857,224.310944 330.508942,222.798981 327.076569,220.835632 
	C325.912323,220.169662 325.292206,218.389191 324.649628,217.012436 
	C323.652557,214.876068 322.846802,212.650238 321.964478,210.460495 
	C320.949524,207.941605 319.939453,205.420746 319.084717,202.608643 
	C327.358734,195.680344 332.827850,187.420410 334.770782,176.997803 
	C334.770782,176.997803 334.985962,177.008011 335.093414,177.025055 
	C335.722382,177.528214 336.243866,178.014297 336.689301,179.056320 
	C335.554871,182.565964 334.612854,185.567673 333.418091,188.465149 
	C328.195312,201.130753 331.563293,199.887329 339.640167,205.923767 
	C344.845154,203.005936 351.415253,201.503265 351.947571,193.962616 
z"/>
<path fill="#A2131E" opacity="1.000000" stroke="none" 
	d="
M157.686508,264.221497 
	C157.553009,268.006622 157.230148,272.035950 156.663452,276.030701 
	C156.158920,279.587067 159.412598,285.486877 162.817261,286.379272 
	C167.957474,287.726501 173.337952,289.732147 176.308640,282.664795 
	C176.643814,281.867401 178.257004,281.607208 179.634857,281.047333 
	C179.070602,284.103821 178.149033,287.210846 177.129120,290.668762 
	C174.718506,297.097137 172.406219,303.174683 169.734131,309.773376 
	C167.662537,311.206818 166.009308,312.258575 164.228516,313.006592 
	C157.553101,315.810455 151.904938,312.077271 146.003052,309.579346 
	C145.983032,307.741791 145.963028,306.328400 145.943024,304.915039 
	C147.109161,299.999176 148.079834,295.026642 149.484375,290.179871 
	C151.981369,281.563293 154.741196,273.022919 157.686508,264.221497 
z"/>
<path fill="#BC1620" opacity="1.000000" stroke="none" 
	d="
M207.007782,203.007431 
	C209.343048,196.443344 211.382935,189.748581 214.193924,183.394974 
	C215.035049,181.493790 217.897522,180.254593 220.082260,179.254730 
	C221.784012,178.475906 223.861496,178.413239 225.789688,178.269470 
	C227.165512,178.166901 229.053391,177.926559 229.873291,178.671555 
	C232.447723,181.010849 234.936615,180.657684 237.686386,179.378204 
	C243.293533,176.769119 247.397095,173.071243 249.053101,166.678741 
	C250.090683,162.673462 252.398773,158.997314 254.465271,155.083588 
	C251.959045,164.446625 249.087006,173.888611 246.309433,183.358307 
	C245.306702,186.776978 244.530624,190.262115 243.015884,194.039490 
	C239.023880,198.365555 235.667099,202.369034 232.199585,206.504608 
	C229.590668,203.884506 227.867233,200.692734 225.423447,199.983658 
	C219.054016,198.135529 212.405533,197.584686 207.007782,203.007431 
z"/>
<path fill="#D01D27" opacity="1.000000" stroke="none" 
	d="
M327.039337,289.024414 
	C327.039337,289.024414 327.104065,288.596222 327.396606,288.232971 
	C328.753754,287.196777 329.818420,286.523834 330.864868,286.228516 
	C330.068817,288.405334 329.403046,290.263336 328.494293,291.993713 
	C323.909637,300.723236 324.099243,301.912811 331.581299,308.736237 
	C331.879883,309.008514 332.478607,308.951660 333.062225,309.074432 
	C333.499146,307.842926 333.906158,306.695740 334.534515,304.924744 
	C336.612061,306.475281 338.277252,307.718079 339.917175,308.991394 
	C339.891907,309.021851 340.040466,309.059113 340.338531,308.904785 
	C342.424316,305.841705 344.212036,302.932953 346.292175,299.839386 
	C348.572021,294.978119 351.720245,290.442352 352.307892,285.596130 
	C353.574066,275.154266 353.624268,264.555725 353.936005,254.014313 
	C354.006989,251.612976 353.482941,249.041473 352.605835,246.792816 
	C349.789185,239.571564 346.679077,232.464783 343.682190,225.313843 
	C343.682190,225.313843 343.885834,225.117676 343.988098,225.020081 
	C350.432953,230.722412 352.813934,238.668503 354.861450,246.473297 
	C358.298218,259.573608 357.662292,272.958191 354.833221,286.075012 
	C352.381348,297.443115 346.970703,307.493011 338.116119,315.802490 
	C337.189728,315.784790 336.750977,315.742981 336.312195,315.701172 
	C336.547668,316.167267 336.783142,316.633362 337.018616,317.099426 
	C333.282745,319.720795 329.546906,322.342163 325.440308,324.737854 
	C325.069611,324.512146 325.071503,324.016998 325.096130,323.989441 
	C325.120728,323.961884 324.984314,323.925629 324.654907,323.932037 
	C323.886505,323.951782 323.447510,323.965118 322.916382,323.634521 
	C321.835754,322.531586 320.840973,321.780640 319.860046,321.011963 
	C317.603790,319.243958 315.206818,317.622925 313.135101,315.659302 
	C309.646790,312.352997 310.720276,308.032623 311.159668,303.744202 
	C311.914032,303.035645 312.466187,302.524139 313.328918,301.955627 
	C314.433258,301.289581 315.227020,300.680511 316.335693,299.922424 
	C320.113525,296.190399 323.576416,292.607422 327.039337,289.024414 
z"/>
<path fill="#A2131E" opacity="1.000000" stroke="none" 
	d="
M229.971069,236.649994 
	C228.533173,239.403152 227.270477,241.823929 225.594788,244.617004 
	C219.627670,242.680176 214.222733,239.852417 207.924271,240.161438 
	C207.525299,240.181000 206.976074,239.747330 206.705322,239.373459 
	C203.436584,234.859970 200.349731,236.832245 197.231262,239.564667 
	C195.875229,240.752808 194.443207,241.854248 193.123444,242.634583 
	C195.462234,235.847595 197.723297,229.421143 199.984375,222.994675 
	C200.244385,222.498505 200.504410,222.002335 201.212463,221.116241 
	C204.110016,219.943344 206.763855,218.129440 208.971420,218.567001 
	C216.148087,219.989502 223.161423,222.235870 230.690567,224.288574 
	C231.264771,222.563263 231.539551,221.107285 232.203659,219.858307 
	C234.329987,215.859436 236.600525,211.937256 238.815399,207.985474 
	C235.925690,217.429520 233.035980,226.873566 229.971069,236.649994 
z"/>
<path fill="#AF141F" opacity="1.000000" stroke="none" 
	d="
M238.997528,207.653656 
	C236.600525,211.937256 234.329987,215.859436 232.203659,219.858307 
	C231.539551,221.107285 231.264771,222.563263 230.690567,224.288574 
	C223.161423,222.235870 216.148087,219.989502 208.971420,218.567001 
	C206.763855,218.129440 204.110016,219.943344 201.342102,220.867950 
	C202.923004,215.231873 204.822342,209.454132 206.864731,203.341919 
	C212.405533,197.584686 219.054016,198.135529 225.423447,199.983658 
	C227.867233,200.692734 229.590668,203.884506 232.199585,206.504608 
	C235.667099,202.369034 239.023880,198.365555 242.705292,194.275696 
	C241.746506,198.566849 240.463074,202.944351 238.997528,207.653656 
z"/>
<path fill="#910F1B" opacity="1.000000" stroke="none" 
	d="
M145.644104,305.125305 
	C145.963028,306.328400 145.983032,307.741791 145.778473,309.867554 
	C143.952347,316.994263 142.350784,323.408600 141.045425,328.636627 
	C144.604065,330.061859 147.600479,331.401611 150.702301,332.420563 
	C151.653732,332.733124 152.906052,332.223541 153.998199,331.987122 
	C155.069031,331.755310 156.305206,330.867981 157.133743,331.174347 
	C161.433029,332.764313 165.531509,334.937958 169.885773,336.324921 
	C173.054993,337.334412 176.512665,337.438293 179.841721,337.945953 
	C173.647385,348.737610 167.453049,359.529297 160.756805,370.619385 
	C157.523117,370.615784 157.398178,369.190125 157.772980,366.712738 
	C158.123718,364.394440 157.343781,361.899689 157.022186,359.487823 
	C156.900543,358.575745 156.349930,357.604492 156.539276,356.786133 
	C157.807785,351.303436 159.368866,345.884705 160.501572,340.376617 
	C160.838974,338.735931 160.108612,336.875610 159.867493,335.115936 
	C152.396652,335.115936 144.925812,335.115936 135.925934,335.115936 
	C139.248367,324.611542 142.296768,314.973572 145.644104,305.125305 
z"/>
<path fill="#D01D27" opacity="1.000000" stroke="none" 
	d="
M308.939453,106.699387 
	C302.942932,106.549599 296.823608,106.129051 290.706421,105.679176 
	C288.102692,105.487694 285.503418,105.234871 281.991058,105.005074 
	C274.151703,104.737572 267.333069,105.106293 260.843292,108.126572 
	C266.901031,119.233353 265.912048,119.628601 275.673523,121.468376 
	C276.136017,121.555550 276.541595,121.944649 276.636047,122.321968 
	C270.211975,122.331116 264.125549,122.211426 257.572449,122.068329 
	C253.076981,122.022507 249.048172,122.000099 244.904572,121.662308 
	C241.509155,116.951538 238.228500,112.556160 235.293121,108.623360 
	C237.109634,106.894142 238.559021,105.514420 240.460251,104.116501 
	C243.632599,104.082092 246.353119,104.065865 249.403702,104.213593 
	C252.133759,104.260826 254.533737,104.144112 257.322693,104.013168 
	C259.422272,103.721436 261.132874,103.443909 262.843445,103.166389 
	C274.404236,103.341637 285.973969,103.310715 297.520782,103.809319 
	C301.316803,103.973236 305.053589,105.508553 308.939453,106.699387 
z"/>
<path fill="#A2131E" opacity="1.000000" stroke="none" 
	d="
M214.300278,331.485535 
	C214.815460,330.885010 215.330658,330.284515 216.178406,329.182983 
	C216.698837,328.471313 216.845978,328.235229 216.952362,327.973755 
	C223.043823,320.361542 229.135284,312.749329 235.586823,305.034882 
	C235.946915,304.932617 236.078369,305.044556 235.996262,305.396545 
	C234.931885,308.172882 233.949615,310.597198 232.910950,313.219055 
	C233.573334,313.298462 234.292099,313.180359 235.340851,313.055603 
	C236.110703,313.038788 236.550537,313.028687 237.139984,313.325012 
	C237.967545,314.344025 238.515274,315.324097 239.343781,315.727448 
	C246.885361,319.398895 250.073212,326.979004 254.534775,333.000671 
	C246.907928,333.009033 239.743073,333.199097 232.594254,332.942383 
	C226.486694,332.723053 220.397568,331.990875 214.300278,331.485535 
z"/>
<path fill="#DF1B24" opacity="1.000000" stroke="none" 
	d="
M222.019470,158.003174 
	C221.789108,158.823257 221.558746,159.643341 220.858459,160.882126 
	C219.270447,162.705093 217.908661,163.979431 217.078140,165.537033 
	C214.102875,171.116959 212.477493,171.767899 206.899368,169.037582 
	C201.502777,166.396133 196.261230,162.705109 190.027985,166.966568 
	C190.953033,163.302277 192.106812,159.677368 192.745941,155.963867 
	C193.567856,151.188309 196.654297,150.011780 200.844986,150.018051 
	C201.981750,150.019745 203.118988,149.707474 204.611267,149.390930 
	C205.136703,149.195831 205.306900,149.149109 205.987793,149.057587 
	C206.666245,149.007050 206.834000,149.001297 207.001770,148.995529 
	C207.167603,149.014908 207.333435,149.034286 208.034576,149.205490 
	C210.048141,149.237045 211.526428,149.116776 213.004700,148.996490 
	C216.366791,149.040543 219.728882,149.084610 223.545166,149.190063 
	C224.018753,151.264481 224.038147,153.277527 223.758881,155.775528 
	C222.979980,156.841385 222.499725,157.422287 222.019470,158.003174 
z"/>
<path fill="#AF141F" opacity="1.000000" stroke="none" 
	d="
M255.003723,332.988556 
	C250.073212,326.979004 246.885361,319.398895 239.343781,315.727448 
	C238.515274,315.324097 237.967545,314.344025 237.547256,313.226257 
	C244.196472,312.554016 250.588028,312.286957 256.979584,312.019897 
	C264.088867,317.808746 270.939178,323.969025 278.438324,329.198853 
	C281.330261,331.215637 285.697601,331.113220 289.390106,331.987274 
	C291.113098,332.395111 292.829956,332.828979 294.781036,333.536346 
	C293.653473,333.888123 292.294434,333.954651 290.055115,334.053284 
	C284.382538,334.052460 279.590271,334.019501 274.445435,333.818970 
	C267.729767,333.430450 261.366760,333.209503 255.003723,332.988556 
z"/>
<path fill="#D01D27" opacity="1.000000" stroke="none" 
	d="
M192.003479,142.077423 
	C187.582489,137.507721 183.187637,132.912216 178.720627,128.387955 
	C177.707809,127.362175 176.444580,126.583656 175.111008,125.041420 
	C174.938721,123.907608 174.952042,123.423691 175.319214,122.888535 
	C183.453369,122.567627 191.233658,122.297974 199.408020,122.032631 
	C200.850906,122.050400 201.899719,122.063850 203.076569,122.396835 
	C204.912994,125.588600 206.503098,128.541824 208.387802,131.293289 
	C209.144669,132.398224 210.452209,133.251190 211.683929,133.871979 
	C213.032608,134.551727 214.583252,134.830719 216.299728,135.363083 
	C214.544739,137.637024 213.269058,139.289932 211.526596,140.957291 
	C205.376907,141.232544 199.693985,141.493347 193.683273,141.844025 
	C192.904800,141.981750 192.454147,142.029587 192.003479,142.077423 
z"/>
<path fill="#AF141F" opacity="1.000000" stroke="none" 
	d="
M326.688599,289.062256 
	C323.576416,292.607422 320.113525,296.190399 316.038025,299.996094 
	C314.623077,300.816711 313.820740,301.414703 313.018372,302.012665 
	C312.466187,302.524139 311.914032,303.035645 310.836884,303.749695 
	C309.880707,303.956116 309.449524,303.960022 309.018341,303.963928 
	C306.663330,304.055756 304.268951,303.913055 301.963531,304.300171 
	C299.230988,304.759033 297.770813,304.996521 297.926605,301.138611 
	C298.014069,298.971924 295.645813,296.706085 294.179321,294.216797 
	C300.319092,290.855286 305.309204,286.449951 308.001160,279.333496 
	C310.881287,279.270630 313.732269,279.097595 316.233490,279.950317 
	C317.551544,280.399719 318.987549,282.578186 319.114716,284.082092 
	C319.631927,290.199036 320.297333,290.812744 326.688599,289.062256 
z"/>
<path fill="#C61923" opacity="1.000000" stroke="none" 
	d="
M308.714142,304.148682 
	C309.449524,303.960022 309.880707,303.956116 310.634705,303.946747 
	C310.720276,308.032623 309.646790,312.352997 313.135101,315.659302 
	C315.206818,317.622925 317.603790,319.243958 319.860046,321.011963 
	C320.840973,321.780640 321.835754,322.531586 322.655670,323.852325 
	C320.717041,325.897278 318.946960,327.380524 317.176910,328.863739 
	C316.629333,328.929810 316.081726,328.995880 315.258423,329.037384 
	C310.569611,329.012848 306.156555,329.012848 301.086609,329.012848 
	C303.109802,324.669281 301.170837,323.137451 297.490936,322.484589 
	C296.416779,322.294037 295.267426,321.153961 294.632721,320.146576 
	C293.320679,318.064087 292.331299,315.778259 290.457550,313.467499 
	C294.000366,306.592468 302.933472,308.726288 308.714142,304.148682 
z"/>
<path fill="#C61923" opacity="1.000000" stroke="none" 
	d="
M251.995712,217.010468 
	C245.857620,216.625656 245.857620,216.625656 245.734039,208.375900 
	C245.797409,207.792419 245.893906,207.610901 246.207825,206.925659 
	C246.568451,205.945480 246.711670,205.469009 246.854889,204.992554 
	C246.854889,204.992554 246.992462,204.527100 247.238617,204.056320 
	C249.866302,202.713318 252.198929,201.313660 254.640335,201.087311 
	C258.727142,200.708389 262.883331,201.078079 267.211426,201.401886 
	C267.658600,201.889359 267.881958,202.142273 268.154205,202.320526 
	C270.848206,204.084503 274.109009,205.353500 276.130859,207.694199 
	C280.038666,212.218216 273.208771,212.660156 272.511902,215.584274 
	C272.398315,216.060867 272.157379,216.507111 271.509399,216.971237 
	C264.694244,216.986877 258.344971,216.998672 251.995712,217.010468 
z"/>
<path fill="#A2131E" opacity="1.000000" stroke="none" 
	d="
M334.492615,177.165833 
	C332.827850,187.420410 327.358734,195.680344 318.803833,202.737915 
	C317.583588,203.412369 316.801727,203.665482 315.710938,203.750504 
	C311.820526,202.406708 309.838470,200.364700 312.190216,196.602753 
	C313.619324,194.316727 314.311005,191.907211 311.543549,190.830704 
	C309.940521,190.207184 307.498566,191.282318 305.590851,192.005997 
	C302.617310,193.133987 299.776917,194.613113 296.880127,195.943451 
	C300.067871,193.047211 303.255646,190.150986 306.758942,187.111633 
	C308.514740,184.997055 309.988983,183.049316 311.386658,181.048111 
	C313.150970,178.521912 314.852875,175.952133 316.418152,173.642471 
	C319.258301,176.638626 321.488220,178.739426 323.376434,181.112198 
	C324.088379,182.006836 323.954742,183.546661 324.304962,184.764053 
	C324.724731,186.222977 325.249725,187.651627 325.729156,189.093384 
	C327.100861,188.074860 328.888947,187.325180 329.756653,185.981247 
	C331.507385,183.269760 332.757721,180.235168 334.492615,177.165833 
z"/>
<path fill="#AF141F" opacity="1.000000" stroke="none" 
	d="
M296.560791,196.109680 
	C299.776917,194.613113 302.617310,193.133987 305.590851,192.005997 
	C307.498566,191.282318 309.940521,190.207184 311.543549,190.830704 
	C314.311005,191.907211 313.619324,194.316727 312.190216,196.602753 
	C309.838470,200.364700 311.820526,202.406708 315.497986,204.025024 
	C312.068542,205.987488 308.543091,207.507385 304.611450,209.023987 
	C302.440155,209.276779 300.665619,209.782043 298.912659,209.715866 
	C297.299103,209.654953 295.367523,209.417221 294.175751,208.488098 
	C291.263733,206.217926 288.698608,203.502808 285.995575,200.663895 
	C286.003235,199.957169 286.009155,199.553345 286.015106,199.149536 
	C289.423889,198.191666 292.832672,197.233795 296.560791,196.109680 
z"/>
<path fill="#860B16" opacity="1.000000" stroke="none" 
	d="
M159.860123,335.495392 
	C160.108612,336.875610 160.838974,338.735931 160.501572,340.376617 
	C159.368866,345.884705 157.807785,351.303436 156.539276,356.786133 
	C156.349930,357.604492 156.900543,358.575745 157.022186,359.487823 
	C157.343781,361.899689 158.123718,364.394440 157.772980,366.712738 
	C157.398178,369.190125 157.523117,370.615784 160.609589,370.943939 
	C156.432755,378.398499 151.990585,385.884216 147.296082,393.208191 
	C146.331329,394.713318 144.423599,395.614014 142.621368,396.887756 
	C144.770554,388.522522 147.287872,380.074036 149.717880,371.600494 
	C153.130173,359.701691 156.477585,347.784302 159.860123,335.495392 
z"/>
<path fill="#A2131E" opacity="1.000000" stroke="none" 
	d="
M174.965363,122.939781 
	C174.952042,123.423691 174.938721,123.907608 174.917343,124.754227 
	C167.804489,118.341408 160.699677,111.565865 153.594879,104.790329 
	C153.797684,104.200485 154.000473,103.610649 154.203278,103.020813 
	C178.465576,103.020813 202.727859,103.020813 227.089386,103.236069 
	C224.118042,103.663277 221.047485,103.875244 217.554428,104.091263 
	C209.091629,104.403687 201.051315,104.712044 192.541809,105.014542 
	C183.330521,105.516167 174.089310,103.041420 166.458466,108.693726 
	C168.535019,111.273094 170.620499,113.389069 172.114243,115.862427 
	C173.412216,118.011620 174.040894,120.565018 174.965363,122.939781 
z"/>
<path fill="#860B16" opacity="1.000000" stroke="none" 
	d="
M140.677673,401.159546 
	C143.713501,405.444000 145.705734,402.022247 147.332703,400.076843 
	C152.982101,393.321594 158.389816,386.364838 163.943619,379.528778 
	C168.113770,374.395813 172.312866,369.283813 176.622589,364.268646 
	C177.663757,363.057068 179.193192,362.265137 180.839111,361.188904 
	C178.371338,365.264374 175.861740,369.675629 172.695969,373.550751 
	C164.217850,383.928528 155.414703,394.040070 146.840225,404.340210 
	C144.561523,407.077545 142.641876,410.113770 140.557373,413.012756 
	C139.806183,412.420288 139.055008,411.827789 138.303833,411.235321 
	C138.996307,407.954285 139.688782,404.673218 140.677673,401.159546 
z"/>
<path fill="#910F1B" opacity="1.000000" stroke="none" 
	d="
M286.952820,141.889709 
	C288.060394,141.694565 289.167969,141.499435 290.876465,141.396133 
	C293.317688,142.001053 295.157959,142.514130 296.998230,143.027191 
	C299.271881,145.129959 301.538757,147.240097 303.820648,149.333862 
	C307.676331,152.871628 310.848541,156.728561 309.982208,162.796768 
	C304.064484,147.930817 292.425079,142.237854 276.123657,142.582977 
	C267.243042,142.083145 259.112579,141.948425 250.993149,141.616547 
	C251.004211,141.419403 251.018356,141.024811 251.432648,141.026917 
	C253.226929,141.009094 254.606903,140.989197 256.456238,140.981491 
	C266.934662,141.292358 276.943726,141.591034 286.952820,141.889709 
z"/>
<path fill="#FF9EAC" opacity="1.000000" stroke="none" 
	d="
M250.982086,141.813690 
	C259.112579,141.948425 267.243042,142.083145 275.666992,142.518799 
	C248.117340,142.823318 220.274261,142.826904 192.217331,142.453949 
	C192.454147,142.029587 192.904800,141.981750 194.149811,141.910889 
	C213.623474,141.863144 232.302780,141.838425 250.982086,141.813690 
z"/>
<path fill="#910F1B" opacity="1.000000" stroke="none" 
	d="
M274.798035,333.986542 
	C279.590271,334.019501 284.382538,334.052460 289.648712,334.095337 
	C288.729340,334.417908 287.336151,335.001984 285.942657,335.002716 
	C262.645599,335.014984 239.348511,334.954315 215.970581,334.688751 
	C217.706146,334.311218 219.522247,334.022766 221.338959,334.018921 
	C239.158585,333.981018 256.978333,333.990509 274.798035,333.986542 
z"/>
<path fill="#D01D27" opacity="1.000000" stroke="none" 
	d="
M335.257568,118.983383 
	C333.403076,118.837929 331.159576,118.813652 329.354340,117.911942 
	C324.080933,115.277840 318.977631,112.302147 313.819946,109.438232 
	C312.956909,108.959038 312.155212,108.369469 311.133789,107.560692 
	C320.371796,108.162384 328.254028,112.304771 335.257568,118.983383 
z"/>
<path fill="#860B16" opacity="1.000000" stroke="none" 
	d="
M274.445435,333.818970 
	C256.978333,333.990509 239.158585,333.981018 221.338959,334.018921 
	C219.522247,334.022766 217.706146,334.311218 215.517151,334.608917 
	C214.743378,333.749847 214.342224,332.749481 214.120667,331.617340 
	C220.397568,331.990875 226.486694,332.723053 232.594254,332.942383 
	C239.743073,333.199097 246.907928,333.009033 254.534775,333.000671 
	C261.366760,333.209503 267.729767,333.430450 274.445435,333.818970 
z"/>
<path fill="#A2131E" opacity="1.000000" stroke="none" 
	d="
M288.659363,295.093201 
	C287.083191,295.772827 285.153076,296.875122 283.191528,296.934265 
	C276.109375,297.147949 269.016663,297.010559 260.993042,297.006012 
	C253.736435,297.725830 247.414658,298.445374 241.032440,299.083008 
	C240.971985,299.001068 240.843124,298.843384 240.843124,298.843384 
	C241.680511,297.884003 242.517914,296.924652 244.146164,295.949982 
	C254.768997,295.942505 264.601746,296.024292 274.432617,295.922943 
	C278.562469,295.880402 282.688354,295.450378 286.816040,295.196503 
	C287.307709,295.143402 287.799377,295.090332 288.659363,295.093201 
z"/>
<path fill="#AF141F" opacity="1.000000" stroke="none" 
	d="
M217.976929,104.087212 
	C221.047485,103.875244 224.118042,103.663277 227.548462,103.299393 
	C239.258072,103.101570 250.607788,103.055664 262.400482,103.088074 
	C261.132874,103.443909 259.422272,103.721436 256.888123,103.997650 
	C253.734253,104.014114 251.403946,104.031876 249.073624,104.049644 
	C246.353119,104.065865 243.632599,104.082092 240.029480,104.093666 
	C232.097733,104.403122 225.048615,104.717239 217.994110,104.795135 
	C217.988754,104.558914 217.976929,104.087212 217.976929,104.087212 
z"/>
<path fill="#FF9EAC" opacity="1.000000" stroke="none" 
	d="
M238.044586,239.154144 
	C252.019989,238.791473 266.122742,238.867996 280.225189,238.975327 
	C282.373108,238.991669 284.519958,239.150558 287.040833,239.498962 
	C271.000153,239.704071 254.585983,239.653732 238.044586,239.154144 
z"/>
<path fill="#A2131E" opacity="1.000000" stroke="none" 
	d="
M285.640747,199.098022 
	C286.009155,199.553345 286.003235,199.957169 285.528137,200.672180 
	C279.042755,201.033157 273.026520,201.082932 267.010315,201.132690 
	C262.883331,201.078079 258.727142,200.708389 254.640335,201.087311 
	C252.198929,201.313660 249.866302,202.713318 247.194305,203.817719 
	C247.351257,202.771988 247.798691,201.494095 249.015976,200.115707 
	C253.909821,199.984375 258.035614,200.019836 262.157410,199.908020 
	C269.361420,199.712585 276.562988,199.426590 283.765564,199.178543 
	C284.265839,199.134537 284.766113,199.090515 285.640747,199.098022 
z"/>
<path fill="#860B16" opacity="1.000000" stroke="none" 
	d="
M188.419403,352.972107 
	C192.224625,347.757324 196.379303,342.542603 200.847229,337.195251 
	C197.029922,342.365784 192.899384,347.668945 188.419403,352.972107 
z"/>
<path fill="#D01D27" opacity="1.000000" stroke="none" 
	d="
M286.368835,295.132324 
	C282.688354,295.450378 278.562469,295.880402 274.432617,295.922943 
	C264.601746,296.024292 254.768997,295.942505 244.475342,295.878357 
	C245.073074,295.551483 246.131882,295.048615 247.192017,295.045746 
	C260.101776,295.010559 273.011719,295.048859 286.368835,295.132324 
z"/>
<path fill="#FF9EAC" opacity="1.000000" stroke="none" 
	d="
M283.313660,199.142456 
	C276.562988,199.426590 269.361420,199.712585 262.157410,199.908020 
	C258.035614,200.019836 253.909821,199.984375 249.304443,200.033997 
	C250.337082,199.725204 251.849075,199.125610 253.365494,199.114182 
	C263.197052,199.040176 273.029541,199.094254 283.313660,199.142456 
z"/>
<path fill="#860B16" opacity="1.000000" stroke="none" 
	d="
M181.446228,361.133087 
	C183.148514,358.546234 185.194748,355.903656 187.560669,353.168427 
	C185.850311,355.742981 183.820251,358.410156 181.446228,361.133087 
z"/>
<path fill="#BC1620" opacity="1.000000" stroke="none" 
	d="
M317.517883,328.865295 
	C318.946960,327.380524 320.717041,325.897278 322.747803,324.196259 
	C323.447510,323.965118 323.886505,323.951782 324.674988,323.956482 
	C325.024506,323.974518 325.071503,324.016998 325.071503,324.016998 
	C325.071503,324.016998 325.069611,324.512146 325.075195,324.759277 
	C322.673492,326.293243 320.266144,327.580048 317.517883,328.865295 
z"/>
<path fill="#C61923" opacity="1.000000" stroke="none" 
	d="
M212.824280,148.678864 
	C211.526428,149.116776 210.048141,149.237045 208.283722,149.180115 
	C209.546341,148.789017 211.095093,148.575119 212.824280,148.678864 
z"/>
<path fill="#A2131E" opacity="1.000000" stroke="none" 
	d="
M236.826782,303.837158 
	C237.645065,302.618164 238.463364,301.399170 239.638748,300.074615 
	C239.995834,299.969055 240.154739,300.086334 240.080093,300.416656 
	C239.021683,301.857910 238.037933,302.968872 236.998322,304.018219 
	C236.942459,303.956635 236.826767,303.837158 236.826782,303.837158 
z"/>
<path fill="#C61923" opacity="1.000000" stroke="none" 
	d="
M337.255798,317.013672 
	C336.783142,316.633362 336.547668,316.167267 336.312195,315.701172 
	C336.750977,315.742981 337.189728,315.784790 337.813385,315.962646 
	C337.829834,316.375153 337.661407,316.651550 337.255798,317.013672 
z"/>
<path fill="#A2131E" opacity="1.000000" stroke="none" 
	d="
M246.600464,205.114838 
	C246.711670,205.469009 246.568451,205.945480 246.292084,206.629044 
	C246.221298,206.303146 246.283661,205.770126 246.600464,205.114838 
z"/>
<path fill="#860B16" opacity="1.000000" stroke="none" 
	d="
M141.623108,397.996918 
	C141.749786,398.179749 141.604446,398.443176 141.262329,398.850037 
	C141.202026,398.710999 141.297211,398.405640 141.623108,397.996918 
z"/>
<path fill="#860B16" opacity="1.000000" stroke="none" 
	d="
M216.742310,328.069946 
	C216.845978,328.235229 216.698837,328.471313 216.368317,328.835876 
	C216.147079,328.647858 216.249283,328.373322 216.742310,328.069946 
z"/>
<path fill="#A2131E" opacity="1.000000" stroke="none" 
	d="
M235.883667,304.873840 
	C235.926010,304.496338 236.115158,304.239105 236.607330,303.940247 
	C236.826767,303.837158 236.942459,303.956635 236.838211,304.181824 
	C236.517258,304.621368 236.298721,304.833893 236.078369,305.044556 
	C236.078369,305.044556 235.946915,304.932617 235.883667,304.873840 
z"/>
<path fill="#A2131E" opacity="1.000000" stroke="none" 
	d="
M239.919571,299.906311 
	C239.912506,299.499298 240.092148,299.228149 240.612686,298.936768 
	C240.843124,298.843384 240.971985,299.001068 240.863190,299.222839 
	C240.537125,299.642273 240.337234,299.856171 240.154739,300.086334 
	C240.154739,300.086334 239.995834,299.969055 239.919571,299.906311 
z"/>
<path fill="#C61923" opacity="1.000000" stroke="none" 
	d="
M206.936539,148.770020 
	C206.834000,149.001297 206.666245,149.007050 206.246948,149.003601 
	C206.287384,148.844437 206.579346,148.694489 206.936539,148.770020 
z"/>
<path fill="#BC1620" opacity="1.000000" stroke="none" 
	d="
M199.622116,223.082520 
	C197.723297,229.421143 195.462234,235.847595 193.071640,242.953979 
	C192.637085,244.431335 192.332077,245.228806 192.027069,246.026260 
	C191.547913,246.158508 190.948471,246.151154 190.608063,246.444427 
	C186.942703,249.602127 183.417313,251.016876 178.451706,248.342789 
	C175.546524,246.778305 172.471802,248.581085 170.979004,252.177353 
	C170.434479,253.489166 168.858871,255.063812 167.619598,255.188766 
	C166.530334,255.298599 165.253830,253.551117 162.929825,251.746140 
	C170.040909,251.366318 168.883881,247.467896 168.723602,243.678955 
	C168.582138,240.334656 169.237137,236.956650 169.770233,233.297028 
	C174.370850,232.690720 175.434097,229.165390 176.818176,225.967178 
	C179.234848,220.382919 180.078156,220.511108 184.951797,223.829849 
	C187.170578,225.340744 190.737289,225.233994 193.681717,225.186478 
	C195.551437,225.156311 197.401154,223.885056 199.622116,223.082520 
z"/>
<path fill="#D01D27" opacity="1.000000" stroke="none" 
	d="
M189.865082,167.291458 
	C196.261230,162.705109 201.502777,166.396133 206.899368,169.037582 
	C212.477493,171.767899 214.102875,171.116959 217.078140,165.537033 
	C217.908661,163.979431 219.270447,162.705093 220.694672,161.158539 
	C217.936066,168.167725 215.095215,175.427963 211.698563,182.418137 
	C210.301376,185.293518 207.880203,187.431198 204.060226,184.661530 
	C202.590866,183.596146 200.239166,183.699158 198.271927,183.377090 
	C187.816162,181.665283 185.368805,177.183563 189.865082,167.291458 
z"/>
<path fill="#D01D27" opacity="1.000000" stroke="none" 
	d="
M222.276947,157.872101 
	C222.499725,157.422287 222.979980,156.841385 223.717651,156.130249 
	C223.494873,156.580338 223.014648,157.160675 222.276947,157.872101 
z"/>
<path fill="#DF1B24" opacity="1.000000" stroke="none" 
	d="
M276.973694,122.193130 
	C276.541595,121.944649 276.136017,121.555550 275.673523,121.468376 
	C265.912048,119.628601 266.901031,119.233353 260.843292,108.126572 
	C267.333069,105.106293 274.151703,104.737572 281.544006,105.006264 
	C280.191589,109.676514 283.278687,111.931755 286.349396,114.445580 
	C287.777557,115.614731 288.372742,117.750938 289.681030,119.130661 
	C291.086884,120.613319 292.704163,122.234367 294.550781,122.891785 
	C298.775665,124.395912 303.964294,123.573235 306.886780,128.623352 
	C305.872864,128.713440 304.745972,128.474442 303.005066,127.956978 
	C299.916595,126.911682 297.442078,126.144859 294.967590,125.378036 
	C293.910889,125.287155 292.854218,125.196274 291.013550,124.975845 
	C287.485809,124.473114 284.742096,124.099922 281.846497,123.498611 
	C281.066833,122.895531 280.438995,122.520554 279.457214,122.157272 
	C278.393372,122.177025 277.683533,122.185081 276.973694,122.193130 
z"/>
<path fill="#DF1B24" opacity="1.000000" stroke="none" 
	d="
M351.596985,193.923126 
	C351.415253,201.503265 344.845154,203.005936 339.640167,205.923767 
	C331.563293,199.887329 328.195312,201.130753 333.418091,188.465149 
	C334.612854,185.567673 335.554871,182.565964 336.802460,179.308685 
	C339.567474,182.132416 342.004395,185.389648 344.766602,188.342590 
	C346.695984,190.405212 349.070618,192.051422 351.596985,193.923126 
z"/>
<path fill="#DF1B24" opacity="1.000000" stroke="none" 
	d="
M316.838287,133.763458 
	C316.324097,133.578018 315.666473,133.116562 314.835754,132.397614 
	C315.340057,132.589233 316.017456,133.038345 316.838287,133.763458 
z"/>
<path fill="#D01D27" opacity="1.000000" stroke="none" 
	d="
M335.235657,160.791992 
	C335.107971,160.546555 335.060181,160.105896 335.012207,159.332321 
	C335.113251,159.531860 335.214417,160.064331 335.235657,160.791992 
z"/>
<path fill="#AF141F" opacity="1.000000" stroke="none" 
	d="
M281.998352,123.726730 
	C284.742096,124.099922 287.485809,124.473114 290.615662,124.970810 
	C288.671783,125.930519 286.341797,126.765724 282.872528,128.009308 
	C283.865662,130.737061 285.025879,133.765427 286.060577,136.836090 
	C286.540833,138.261276 286.777008,139.768707 287.038330,141.564270 
	C276.943726,141.591034 266.934662,141.292358 256.506744,140.626007 
	C256.365784,137.530533 256.630920,134.801331 256.924774,132.075241 
	C257.283630,128.746048 257.666595,125.419456 258.039124,122.091736 
	C264.125549,122.211426 270.211975,122.331116 276.636047,122.321976 
	C277.683533,122.185081 278.393372,122.177025 279.620697,122.387451 
	C280.758240,122.979538 281.378296,123.353134 281.998352,123.726730 
z"/>
<path fill="#AF141F" opacity="1.000000" stroke="none" 
	d="
M296.975098,142.673920 
	C295.157959,142.514130 293.317688,142.001053 291.190216,141.267303 
	C294.161774,137.717667 295.166565,137.929291 296.975098,142.673920 
z"/>
<path fill="#AF141F" opacity="1.000000" stroke="none" 
	d="
M295.143433,125.634201 
	C297.442078,126.144859 299.916595,126.911682 302.664734,127.894249 
	C300.398712,127.370110 297.858978,126.630234 295.143433,125.634201 
z"/>
<path fill="#9F101B" opacity="1.000000" stroke="none" 
	d="
M179.923172,337.594910 
	C176.512665,337.438293 173.054993,337.334412 169.885773,336.324921 
	C165.531509,334.937958 161.433029,332.764313 157.133743,331.174347 
	C156.305206,330.867981 155.069031,331.755310 153.998199,331.987122 
	C152.906052,332.223541 151.653732,332.733124 150.702301,332.420563 
	C147.600479,331.401611 144.604065,330.061859 141.045425,328.636627 
	C142.350784,323.408600 143.952347,316.994263 145.778488,310.291748 
	C151.904938,312.077271 157.553101,315.810455 164.228516,313.006592 
	C166.009308,312.258575 167.662537,311.206818 169.687134,310.144470 
	C173.375031,310.359100 176.743164,310.829010 180.127548,311.053375 
	C182.601929,311.217377 185.101532,310.963043 187.583130,311.063049 
	C192.819427,311.274139 193.517670,312.655914 190.957428,317.104340 
	C189.232864,320.100739 187.706757,323.211395 186.045486,326.630554 
	C184.000961,330.408051 182.002792,333.825928 179.923172,337.594910 
z"/>
<path fill="#BC1620" opacity="1.000000" stroke="none" 
	d="
M267.211426,201.401886 
	C273.026520,201.082932 279.042755,201.033157 285.526428,200.975098 
	C288.698608,203.502808 291.263733,206.217926 294.175751,208.488098 
	C295.367523,209.417221 297.299103,209.654953 298.912659,209.715866 
	C300.665619,209.782043 302.440155,209.276779 304.506409,209.349045 
	C304.608246,211.503479 303.534149,214.115601 304.352966,215.026840 
	C309.330475,220.566269 314.739014,225.718338 320.003693,230.999725 
	C319.996887,231.451218 319.990051,231.902725 319.581970,232.692932 
	C316.452484,233.698715 313.724274,234.365814 310.996063,235.032898 
	C308.605011,235.349808 306.213928,235.666687 303.156799,235.767960 
	C298.941864,230.605118 290.328888,231.160034 289.306549,223.436462 
	C289.276276,223.208054 288.765839,223.074203 288.545044,222.835434 
	C284.048615,217.972687 278.467987,216.185791 271.975311,216.967392 
	C272.157379,216.507111 272.398315,216.060867 272.511902,215.584274 
	C273.208771,212.660156 280.038666,212.218216 276.130859,207.694199 
	C274.109009,205.353500 270.848206,204.084503 268.154205,202.320526 
	C267.881958,202.142273 267.658600,201.889359 267.211426,201.401886 
z"/>
<path fill="#9F101B" opacity="1.000000" stroke="none" 
	d="
M310.888611,235.370575 
	C313.724274,234.365814 316.452484,233.698715 319.577698,233.031555 
	C322.148621,235.176041 324.322479,237.320633 326.966064,239.713287 
	C327.435791,239.961365 327.830872,240.095093 327.982574,240.286316 
	C328.357513,240.721146 328.620758,240.908463 328.885925,241.062500 
	C328.847778,241.085495 328.840179,241.174255 328.906250,241.477936 
	C329.546600,242.623154 330.120850,243.464706 330.772461,244.656525 
	C331.912811,247.671646 332.975830,250.336472 334.032532,253.426941 
	C335.516541,263.158051 335.744354,272.337158 330.977692,281.036377 
	C330.434814,281.015991 330.217651,281.008118 330.000488,281.000244 
	C329.943573,276.967072 330.952484,272.537140 325.383820,270.853363 
	C324.618256,270.621887 324.343353,268.598572 323.939148,267.372528 
	C322.712250,263.651154 321.940857,259.697479 320.131775,256.291168 
	C319.424927,254.960190 316.428406,254.845261 314.299530,254.116486 
	C314.827515,251.533142 315.538879,248.052353 316.277710,244.437317 
	C308.975159,243.966064 308.094299,242.263168 310.888611,235.370575 
z"/>
<path fill="#AF141F" opacity="1.000000" stroke="none" 
	d="
M271.509399,216.971237 
	C278.467987,216.185791 284.048615,217.972687 288.545044,222.835434 
	C288.765839,223.074203 289.276276,223.208054 289.306549,223.436462 
	C290.328888,231.160034 298.941864,230.605118 302.744751,235.768478 
	C297.579071,241.645874 291.090240,237.498901 285.161621,237.660873 
	C279.051575,237.827820 273.463135,236.350449 269.337341,230.383240 
	C265.276428,224.509903 259.868011,219.413101 252.190186,217.297974 
	C258.344971,216.998672 264.694244,216.986877 271.509399,216.971237 
z"/>
<path fill="#AF141F" opacity="1.000000" stroke="none" 
	d="
M316.888580,268.012695 
	C316.847778,270.016815 316.763489,271.703217 316.679169,273.389618 
	C316.215881,273.373138 315.752625,273.356689 315.289337,273.340210 
	C315.289337,271.329712 315.289337,269.319244 315.289337,267.308746 
	C315.807922,267.437469 316.326477,267.566223 316.888580,268.012695 
z"/>
<path fill="#AF141F" opacity="1.000000" stroke="none" 
	d="
M329.844391,281.309631 
	C330.217651,281.008118 330.434814,281.015991 331.040924,281.321350 
	C331.247589,283.029480 331.065338,284.440186 330.883057,285.850861 
	C329.818420,286.523834 328.753754,287.196777 327.412659,288.017059 
	C327.986908,285.982574 328.837585,283.800781 329.844391,281.309631 
z"/>
<path fill="#9F101B" opacity="1.000000" stroke="none" 
	d="
M192.001389,246.411194 
	C192.332077,245.228806 192.637085,244.431335 192.993912,243.314484 
	C194.443207,241.854248 195.875229,240.752808 197.231262,239.564667 
	C200.349731,236.832245 203.436584,234.859970 206.705322,239.373459 
	C206.976074,239.747330 207.525299,240.181000 207.924271,240.161438 
	C214.222733,239.852417 219.627670,242.680176 225.568665,244.997757 
	C223.268372,251.150543 220.581192,257.294891 217.853638,263.531494 
	C217.173996,263.011139 215.891022,262.068390 214.651306,261.071808 
	C211.772705,258.757812 209.173904,257.389130 205.051788,259.299438 
	C202.795471,260.345062 199.302689,258.485596 196.346832,258.331055 
	C193.820236,258.199005 191.264191,258.630310 188.390411,258.925476 
	C189.365005,254.957718 190.670364,250.876923 192.001389,246.411194 
z"/>
<path fill="#9F101B" opacity="1.000000" stroke="none" 
	d="
M217.499664,266.505432 
	C217.493317,266.486053 217.506012,266.524780 217.499664,266.505432 
z"/>
<path fill="#C61923" opacity="1.000000" stroke="none" 
	d="
M240.080093,300.416656 
	C240.337234,299.856171 240.537125,299.642273 240.923645,299.304810 
	C247.414658,298.445374 253.736435,297.725830 260.523804,297.014709 
	C262.744354,299.022827 264.514069,301.009827 266.248138,303.027405 
	C267.146240,304.072296 268.702240,305.196625 268.665802,306.239807 
	C268.618134,307.604340 267.579895,309.678864 266.453400,310.112885 
	C263.742157,311.157440 260.731384,311.424561 257.410522,312.012573 
	C250.588028,312.286957 244.196472,312.554016 237.397644,312.919830 
	C236.550537,313.028687 236.110703,313.038788 235.147217,312.972198 
	C234.071487,312.937500 233.519424,312.979523 232.967346,313.021545 
	C233.949615,310.597198 234.931885,308.172882 235.996262,305.396545 
	C236.298721,304.833893 236.517258,304.621368 236.894073,304.243408 
	C238.037933,302.968872 239.021683,301.857910 240.080093,300.416656 
z"/>
<path fill="#EA1B23" opacity="1.000000" stroke="none" 
	d="
M327.830872,240.095093 
	C327.830872,240.095093 327.435791,239.961365 327.246887,239.871674 
	C326.744141,238.848389 326.584991,237.822449 326.091705,236.995956 
	C322.543823,231.051926 322.525543,231.070526 328.352142,227.788803 
	C329.359009,227.221695 330.588623,226.792252 331.266327,225.941513 
	C334.923004,221.350845 338.895996,222.367416 343.364624,225.175385 
	C346.679077,232.464783 349.789185,239.571564 352.605835,246.792816 
	C353.482941,249.041473 354.006989,251.612976 353.936005,254.014313 
	C353.624268,264.555725 353.574066,275.154266 352.307892,285.596130 
	C351.720245,290.442352 348.572021,294.978119 346.213898,299.500549 
	C344.496155,296.411896 343.149139,293.477264 341.638184,290.185547 
	C341.121490,290.364258 339.669525,290.866455 337.159424,291.734619 
	C336.605316,287.075836 335.690125,282.935333 335.718018,278.801178 
	C335.762421,272.225800 336.680084,265.655273 336.696869,259.081360 
	C336.702057,257.056946 334.973511,255.028122 334.038818,253.001312 
	C332.975830,250.336472 331.912811,247.671646 330.778564,244.314667 
	C330.084900,242.806427 329.462555,241.990341 328.840179,241.174255 
	C328.840179,241.174255 328.847778,241.085495 328.717102,240.890686 
	C328.354340,240.470749 328.102509,240.270493 327.830872,240.095093 
z"/>
<path fill="#C61923" opacity="1.000000" stroke="none" 
	d="
M320.280762,230.812042 
	C314.739014,225.718338 309.330475,220.566269 304.352966,215.026840 
	C303.534149,214.115601 304.608246,211.503479 304.912598,209.352356 
	C308.543091,207.507385 312.068542,205.987488 315.806946,204.193085 
	C316.801727,203.665482 317.583588,203.412369 318.646362,203.029999 
	C319.939453,205.420746 320.949524,207.941605 321.964478,210.460495 
	C322.846802,212.650238 323.652557,214.876068 324.649628,217.012436 
	C325.292206,218.389191 325.912323,220.169662 327.076569,220.835632 
	C330.508942,222.798981 329.246857,224.310944 327.010376,225.962753 
	C324.876099,227.539062 322.709961,229.072250 320.280762,230.812042 
z"/>
<path fill="#DF1B24" opacity="1.000000" stroke="none" 
	d="
M334.032501,253.426941 
	C334.973511,255.028122 336.702057,257.056946 336.696869,259.081360 
	C336.680084,265.655273 335.762421,272.225800 335.718018,278.801178 
	C335.690125,282.935333 336.605316,287.075836 337.159424,291.734619 
	C339.669525,290.866455 341.121490,290.364258 341.638184,290.185547 
	C343.149139,293.477264 344.496155,296.411896 345.921478,299.685333 
	C344.212036,302.932953 342.424316,305.841705 340.314636,308.879639 
	C339.992645,309.008820 339.942444,308.960907 339.942444,308.960907 
	C338.277252,307.718079 336.612061,306.475281 334.534515,304.924744 
	C333.906158,306.695740 333.499146,307.842926 333.062225,309.074432 
	C332.478607,308.951660 331.879883,309.008514 331.581299,308.736237 
	C324.099243,301.912811 323.909637,300.723236 328.494293,291.993713 
	C329.403046,290.263336 330.068817,288.405334 330.864868,286.228516 
	C331.065338,284.440186 331.247589,283.029480 331.366638,281.333832 
	C335.744354,272.337158 335.516541,263.158051 334.032501,253.426941 
z"/>
<path fill="#C61923" opacity="1.000000" stroke="none" 
	d="
M313.328918,301.955627 
	C313.820740,301.414703 314.623077,300.816711 315.723114,300.145081 
	C315.227020,300.680511 314.433258,301.289581 313.328918,301.955627 
z"/>
<path fill="#C61923" opacity="1.000000" stroke="none" 
	d="
M325.004395,323.950073 
	C324.984314,323.925629 325.120728,323.961884 325.096130,323.989441 
	C325.071503,324.016998 325.024506,323.974518 325.004395,323.950073 
z"/>
<path fill="#DF1B24" opacity="1.000000" stroke="none" 
	d="
M340.016541,309.033966 
	C340.040466,309.059113 339.891907,309.021851 339.917175,308.991394 
	C339.942444,308.960907 339.992645,309.008820 340.016541,309.033966 
z"/>
<path fill="#C61923" opacity="1.000000" stroke="none" 
	d="
M217.999481,105.031357 
	C225.048615,104.717239 232.097733,104.403122 239.577637,104.111847 
	C238.559021,105.514420 237.109634,106.894142 235.293121,108.623360 
	C238.228500,112.556160 241.509155,116.951538 244.444778,121.668861 
	C240.647034,122.192490 237.134613,122.063995 233.755844,122.674789 
	C228.931381,123.546928 228.174332,125.524055 231.192657,129.474869 
	C233.880203,132.992691 235.322052,136.560654 233.509201,140.946930 
	C226.026535,140.951904 219.009964,140.947372 211.993378,140.942841 
	C213.269058,139.289932 214.544739,137.637024 216.299728,135.363083 
	C214.583252,134.830719 213.032608,134.551727 211.683929,133.871979 
	C210.452209,133.251190 209.144669,132.398224 208.387802,131.293289 
	C206.503098,128.541824 204.912994,125.588600 203.532852,122.379089 
	C208.293030,122.066872 212.744049,122.342110 217.148392,122.005875 
	C219.188751,121.850105 221.138168,120.503159 223.128830,119.696243 
	C221.997437,117.586029 221.388870,114.661461 219.628342,113.531181 
	C215.680450,110.996559 215.117905,108.529793 217.999481,105.031357 
z"/>
<path fill="#BC1620" opacity="1.000000" stroke="none" 
	d="
M233.975281,140.937424 
	C235.322052,136.560654 233.880203,132.992691 231.192657,129.474869 
	C228.174332,125.524055 228.931381,123.546928 233.755844,122.674789 
	C237.134613,122.063995 240.647034,122.192490 244.559555,121.984253 
	C249.048172,122.000099 253.076981,122.022507 257.572449,122.068321 
	C257.666595,125.419456 257.283630,128.746048 256.924774,132.075241 
	C256.630920,134.801331 256.365784,137.530533 256.037415,140.613831 
	C254.606903,140.989197 253.226929,141.009094 251.101929,140.878845 
	C244.896362,140.798264 239.435822,140.867844 233.975281,140.937424 
z"/>
<path fill="#C61923" opacity="1.000000" stroke="none" 
	d="
M249.403702,104.213593 
	C251.403946,104.031876 253.734253,104.014114 256.499146,104.011871 
	C254.533737,104.144112 252.133759,104.260826 249.403702,104.213593 
z"/>
<path fill="#AF141F" opacity="1.000000" stroke="none" 
	d="
M232.910950,313.219055 
	C233.519424,312.979523 234.071487,312.937500 234.817200,312.978882 
	C234.292099,313.180359 233.573334,313.298462 232.910950,313.219055 
z"/>
<path fill="#AF141F" opacity="1.000000" stroke="none" 
	d="
M175.319214,122.888535 
	C174.040894,120.565018 173.412216,118.011620 172.114243,115.862427 
	C170.620499,113.389069 168.535019,111.273094 166.458466,108.693726 
	C174.089310,103.041420 183.330521,105.516167 192.402527,105.300774 
	C191.746109,106.815025 190.759720,108.037178 189.838013,109.179207 
	C193.348038,112.228195 196.600571,115.053505 200.139816,118.127892 
	C199.808456,119.275841 199.411209,120.652077 199.013947,122.028320 
	C191.233658,122.297974 183.453369,122.567627 175.319214,122.888535 
z"/>
<path fill="#BC1620" opacity="1.000000" stroke="none" 
	d="
M199.408020,122.032639 
	C199.411209,120.652077 199.808456,119.275841 200.139816,118.127892 
	C196.600571,115.053505 193.348038,112.228195 189.838013,109.179207 
	C190.759720,108.037178 191.746109,106.815025 192.871750,105.306641 
	C201.051315,104.712044 209.091629,104.403687 217.554428,104.091263 
	C217.976929,104.087212 217.988754,104.558914 217.994110,104.795135 
	C215.117905,108.529793 215.680450,110.996559 219.628342,113.531181 
	C221.388870,114.661461 221.997437,117.586029 223.128830,119.696243 
	C221.138168,120.503159 219.188751,121.850105 217.148392,122.005875 
	C212.744049,122.342110 208.293030,122.066872 203.404816,122.059547 
	C201.899719,122.063850 200.850906,122.050400 199.408020,122.032639 
z"/>
<path fill="#AF141F" opacity="1.000000" stroke="none" 
	d="
M233.509201,140.946930 
	C239.435822,140.867844 244.896362,140.798264 250.687622,140.876740 
	C251.018356,141.024811 251.004211,141.419403 250.993149,141.616547 
	C232.302780,141.838425 213.623474,141.863144 194.477631,141.821014 
	C199.693985,141.493347 205.376907,141.232544 211.526596,140.957291 
	C219.009964,140.947372 226.026535,140.951904 233.509201,140.946930 
z"/>
<path fill="#D01D27" opacity="1.000000" stroke="none" 
	d="
M281.846497,123.498611 
	C281.378296,123.353134 280.758240,122.979538 279.974670,122.375763 
	C280.438995,122.520554 281.066833,122.895531 281.846497,123.498611 
z"/>
<path fill="#D01D27" opacity="1.000000" stroke="none" 
	d="
M328.906250,241.477936 
	C329.462555,241.990341 330.084900,242.806427 330.701172,243.964386 
	C330.120850,243.464706 329.546600,242.623154 328.906250,241.477936 
z"/>
<path fill="#D01D27" opacity="1.000000" stroke="none" 
	d="
M327.982574,240.286316 
	C328.102509,240.270493 328.354340,240.470749 328.755249,240.867676 
	C328.620758,240.908463 328.357513,240.721146 327.982574,240.286316 
z"/>
</svg>